# xmcd
#
# Track frame offsets:
#	150
#	19903
#	52123
#	81587
#	103403
#	124013
#	141719
#	169146
#	188795
#	220025
#	240181
#	283825
#
# Disc length: 4172 seconds
#
# Revision: 1
# Processed by: cddbd v1.4PL0 Copyright (c) Steve Scherf et al.
# Submitted via: audiograbber 1.80
#
DISCID=b9104a0c
DTITLE=Racky Thomas Band - Live at the Yardrock
DYEAR=1900
DGENRE=
TTITLE0=The Hustle is On
TTITLE1=Standing on a Corner
TTITLE2=Sweet Dough Baker
TTITLE3=Don't Treat Me Like That
TTITLE4=Oh My
TTITLE5=Rack 'em Up
TTITLE6=Please Love Me
TTITLE7=Tenor Madness
TTITLE8=I Wonder Why
TTITLE9=One Thing Mama
TTITLE10=Can't Win for Losin'
TTITLE11=Blues Keep Me Troubled
EXTD=
EXTT0=
EXTT1=
EXTT2=
EXTT3=
EXTT4=
EXTT5=
EXTT6=
EXTT7=
EXTT8=
EXTT9=
EXTT10=
EXTT11=
PLAYORDER=
